<?xml version="1.0" standalone="no"?>
<svg viewBox="0 0 200 200" xmlns="http://www.w3.org/2000/svg">
  <path fill="#BDF6FD" d="M29,-41.4C39.4,-38.5,50.7,-33.4,56.4,-24.7C62.1,-15.9,62.1,-3.5,58.5,7.1C54.9,17.6,47.6,26.3,39.6,32.6C31.5,38.8,22.6,42.7,11.3,52.3C0.1,61.9,-13.5,77.2,-28,80C-42.5,82.8,-57.8,73.1,-58.7,58.4C-59.6,43.8,-46.1,24.2,-48.9,6.8C-51.8,-10.6,-70.9,-25.8,-70.1,-33.9C-69.4,-42,-48.7,-42.8,-33.7,-43.7C-18.7,-44.5,-9.4,-45.3,0,-45.2C9.3,-45.2,18.7,-44.4,29,-41.4Z" transform="translate(100 100)" />
</svg>
